<svg width="27" height="28" viewBox="0 0 27 28" fill="none" xmlns="http://www.w3.org/2000/svg">
<path d="M13.5 27.8301C15.364 27.8301 16.875 26.319 16.875 24.4551H10.125C10.125 26.319 11.636 27.8301 13.5 27.8301Z" fill="white"/>
<path d="M13.5 4.06712L12.1547 4.33881C9.0712 4.96157 6.75004 7.68914 6.75004 10.9551C6.75004 12.0145 6.5233 14.6629 5.9757 17.27C5.70386 18.5642 5.34016 19.9117 4.85678 21.0801H22.1432C21.6599 19.9117 21.2962 18.5642 21.0243 17.27C20.4768 14.6629 20.25 12.0145 20.25 10.9551C20.25 7.68912 17.9288 4.96153 14.8453 4.3388L13.5 4.06712ZM23.9951 21.0801C24.3718 21.8351 24.8087 22.4317 25.3125 22.7676H1.6875C2.19126 22.4317 2.62819 21.8351 3.00493 21.0801C4.52119 18.0415 5.06254 12.4387 5.06254 10.9551C5.06254 6.87021 7.96534 3.46333 11.8207 2.68471C11.8153 2.62973 11.8125 2.57398 11.8125 2.51758C11.8125 1.5856 12.568 0.830078 13.5 0.830078C14.432 0.830078 15.1875 1.5856 15.1875 2.51758C15.1875 2.57397 15.1847 2.62972 15.1793 2.6847C19.0347 3.46329 21.9375 6.87019 21.9375 10.9551C21.9375 12.4387 22.4788 18.0415 23.9951 21.0801Z" fill="white"/>
</svg>
