<svg width="23" height="24" viewBox="0 0 23 24" fill="none" xmlns="http://www.w3.org/2000/svg">
<path d="M3.53546 15.8815C5.0251 17.3837 7.00884 18.2855 9.11295 18.417C11.2171 18.5485 13.2963 17.9006 14.959 16.5954L20.6799 22.3566C20.8827 22.5539 21.1545 22.6631 21.4365 22.6606C21.7186 22.6582 21.9884 22.5442 22.1879 22.3434C22.3873 22.1425 22.5005 21.8708 22.5029 21.5867C22.5054 21.3027 22.3969 21.029 22.201 20.8247L16.4801 15.0636C17.8337 13.3142 18.4737 11.1106 18.2695 8.9024C18.0653 6.69415 17.0323 4.64752 15.3812 3.1799C13.7301 1.71227 11.5852 0.934201 9.384 1.00436C7.18281 1.07453 5.0911 1.98764 3.53546 3.55748C2.73164 4.36654 2.094 5.32716 1.65896 6.38445C1.22392 7.44175 1 8.57501 1 9.71948C1 10.864 1.22392 11.9972 1.65896 13.0545C2.094 14.1118 2.73164 15.0724 3.53546 15.8815ZM5.05658 5.09148C6.12005 4.02055 7.51934 3.35407 9.01606 3.20561C10.5128 3.05714 12.0143 3.43587 13.2648 4.27727C14.5153 5.11867 15.4375 6.37068 15.8741 7.81998C16.3108 9.26928 16.2349 10.8262 15.6595 12.2255C15.084 13.6248 14.0446 14.7799 12.7183 15.494C11.392 16.208 9.86085 16.4369 8.38576 16.1416C6.91067 15.8463 5.58289 15.0451 4.62864 13.8744C3.67439 12.7038 3.15271 11.2362 3.15248 9.72165C3.14953 8.86102 3.31633 8.00837 3.64319 7.21317C3.97005 6.41797 4.45047 5.69605 5.05658 5.08931V5.09148ZM4.60906 9.7184C4.60906 9.43108 4.7224 9.15553 4.92415 8.95236C5.12589 8.7492 5.39952 8.63506 5.68483 8.63506C5.97014 8.63506 6.24376 8.7492 6.4455 8.95236C6.64725 9.15553 6.76059 9.43108 6.76059 9.7184C6.76144 10.4907 7.06648 11.2312 7.60879 11.7773C8.15109 12.3234 8.88637 12.6306 9.65331 12.6315C9.93862 12.6315 10.2122 12.7456 10.414 12.9488C10.6157 13.1519 10.7291 13.4275 10.7291 13.7148C10.7291 14.0021 10.6157 14.2777 10.414 14.4808C10.2122 14.684 9.93862 14.7981 9.65331 14.7981C8.31645 14.795 7.03524 14.2588 6.08994 13.3068C5.14464 12.3549 4.61219 11.0647 4.60906 9.7184Z" fill="#757373" stroke="#757373"/>
</svg>
