<svg width="250" height="245" viewBox="0 0 250 245" fill="none" xmlns="http://www.w3.org/2000/svg">
<ellipse cx="125" cy="122.5" rx="125" ry="122.5" fill="#F5F5F5"/>
<path d="M124.808 123C121.159 123 118.035 121.531 115.437 118.594C112.838 115.656 111.539 112.125 111.539 108C111.539 103.875 112.838 100.344 115.437 97.4063C118.035 94.4688 121.159 93 124.808 93C128.457 93 131.581 94.4688 134.179 97.4063C136.778 100.344 138.077 103.875 138.077 108C138.077 112.125 136.778 115.656 134.179 118.594C131.581 121.531 128.457 123 124.808 123ZM98.2695 153V142.5C98.2695 140.375 98.7533 138.422 99.7209 136.641C100.688 134.859 101.974 133.5 103.577 132.563C107.005 130.625 110.488 129.172 114.027 128.203C117.565 127.234 121.159 126.75 124.808 126.75C128.457 126.75 132.051 127.234 135.589 128.203C139.128 129.172 142.611 130.625 146.039 132.563C147.642 133.5 148.928 134.859 149.895 136.641C150.863 138.422 151.346 140.375 151.346 142.5V153H98.2695ZM104.904 145.5H144.712V142.5C144.712 141.812 144.56 141.187 144.256 140.625C143.952 140.062 143.551 139.625 143.053 139.313C140.068 137.625 137.054 136.359 134.014 135.516C130.973 134.672 127.904 134.25 124.808 134.25C121.712 134.25 118.643 134.672 115.602 135.516C112.562 136.359 109.548 137.625 106.563 139.313C106.065 139.625 105.664 140.062 105.36 140.625C105.056 141.187 104.904 141.812 104.904 142.5V145.5ZM124.808 115.5C126.633 115.5 128.194 114.766 129.494 113.297C130.793 111.828 131.443 110.063 131.443 108C131.443 105.937 130.793 104.172 129.494 102.703C128.194 101.234 126.633 100.5 124.808 100.5C122.983 100.5 121.422 101.234 120.122 102.703C118.823 104.172 118.173 105.937 118.173 108C118.173 110.063 118.823 111.828 120.122 113.297C121.422 114.766 122.983 115.5 124.808 115.5Z" fill="#3A2E5D"/>
</svg>
