<svg width="27" height="27" viewBox="0 0 27 27" fill="none" xmlns="http://www.w3.org/2000/svg">
<path d="M0.798081 7.06388C0.205533 7.43043 0.0134005 8.22284 0.368923 8.83375C0.724445 9.44467 1.49301 9.64277 2.08554 9.27622L0.798081 7.06388ZM9.78309 3.01005L10.5338 1.97805C10.1269 1.66336 9.57556 1.63403 9.13931 1.90388L9.78309 3.01005ZM16.4561 8.17005L15.7054 9.20205C16.1618 9.55503 16.7921 9.54488 17.2377 9.17737L16.4561 8.17005ZM25.579 2.29737C26.1187 1.8523 26.2061 1.04053 25.7745 0.484194C25.3428 -0.0721397 24.5553 -0.162336 24.0158 0.282731L25.579 2.29737ZM21.878 25.3701C21.878 26.0825 22.4382 26.6601 23.1291 26.6601C23.8201 26.6601 24.3803 26.0825 24.3803 25.3701H21.878ZM24.3803 11.6101C24.3803 10.8976 23.8201 10.3201 23.1291 10.3201C22.4382 10.3201 21.878 10.8976 21.878 11.6101H24.3803ZM8.5319 25.3701C8.5319 26.0825 9.0921 26.6601 9.78309 26.6601C10.4741 26.6601 11.0343 26.0825 11.0343 25.3701H8.5319ZM11.0343 11.6101C11.0343 10.8976 10.4741 10.3201 9.78309 10.3201C9.0921 10.3201 8.5319 10.8976 8.5319 11.6101H11.0343ZM15.2049 25.3701C15.2049 26.0825 15.7651 26.6601 16.4561 26.6601C17.1471 26.6601 17.7073 26.0825 17.7073 25.3701H15.2049ZM17.7073 16.7701C17.7073 16.0576 17.1471 15.4801 16.4561 15.4801C15.7651 15.4801 15.2049 16.0576 15.2049 16.7701H17.7073ZM1.85888 25.3701C1.85888 26.0825 2.41906 26.6601 3.11007 26.6601C3.80108 26.6601 4.36126 26.0825 4.36126 25.3701H1.85888ZM4.36126 16.7701C4.36126 16.0576 3.80108 15.4801 3.11007 15.4801C2.41906 15.4801 1.85888 16.0576 1.85888 16.7701H4.36126ZM2.08554 9.27622L10.4269 4.11622L9.13931 1.90388L0.798081 7.06388L2.08554 9.27622ZM9.03238 4.04205L15.7054 9.20205L17.2068 7.13805L10.5338 1.97805L9.03238 4.04205ZM17.2377 9.17737L25.579 2.29737L24.0158 0.282731L15.6745 7.16273L17.2377 9.17737ZM24.3803 25.3701V11.6101H21.878V25.3701H24.3803ZM11.0343 25.3701V11.6101H8.5319V25.3701H11.0343ZM17.7073 25.3701V16.7701H15.2049V25.3701H17.7073ZM4.36126 25.3701V16.7701H1.85888V25.3701H4.36126Z" fill="white"/>
</svg>
