<svg width="27" height="28" viewBox="0 0 27 28" fill="none" xmlns="http://www.w3.org/2000/svg">
<path d="M21.0938 27.8301C24.3557 27.8301 27 25.1858 27 21.9238C27 18.6619 24.3557 16.0176 21.0938 16.0176C17.8318 16.0176 15.1875 18.6619 15.1875 21.9238C15.1875 25.1858 17.8318 27.8301 21.0938 27.8301ZM21.9375 19.3926V21.0801H23.625C24.091 21.0801 24.4688 21.4578 24.4688 21.9238C24.4688 22.3898 24.091 22.7676 23.625 22.7676H21.9375V24.4551C21.9375 24.9211 21.5597 25.2988 21.0938 25.2988C20.6278 25.2988 20.25 24.9211 20.25 24.4551V22.7676H18.5625C18.0965 22.7676 17.7188 22.3898 17.7188 21.9238C17.7188 21.4578 18.0965 21.0801 18.5625 21.0801H20.25V19.3926C20.25 18.9266 20.6278 18.5488 21.0938 18.5488C21.5597 18.5488 21.9375 18.9266 21.9375 19.3926Z" fill="white"/>
<path d="M13.5 2.51758C10.845 2.51758 8.40042 3.00503 6.58802 3.82885C4.85179 4.61805 3.375 5.88077 3.375 7.58008C3.375 9.27938 4.85179 10.5421 6.58802 11.3313C8.40042 12.1551 10.845 12.6426 13.5 12.6426C16.155 12.6426 18.5996 12.1551 20.412 11.3313C22.1482 10.5421 23.625 9.27938 23.625 7.58008C23.625 5.88077 22.1482 4.61805 20.412 3.82885C18.5996 3.00503 16.155 2.51758 13.5 2.51758Z" fill="white"/>
<path d="M3.375 12.6426V11.2268C4.14664 11.9554 5.06964 12.4948 5.88973 12.8676C7.96779 13.8121 10.6608 14.3301 13.5 14.3301C16.3392 14.3301 19.0322 13.8121 21.1103 12.8676C21.9304 12.4948 22.8534 11.9554 23.625 11.2268V12.6426C23.625 13.3579 23.3633 13.9959 22.9307 14.5538C22.3425 14.4076 21.7272 14.3301 21.0938 14.3301C18.4781 14.3301 16.1713 15.6525 14.8056 17.6653C14.3775 17.6916 13.9417 17.7051 13.5 17.7051C10.845 17.7051 8.40042 17.2176 6.58802 16.3938C4.85179 15.6046 3.375 14.3419 3.375 12.6426Z" fill="white"/>
<path d="M13.9335 19.3885C13.7894 19.3912 13.6449 19.3926 13.5 19.3926C10.6608 19.3926 7.96779 18.8746 5.88973 17.9301C5.06964 17.5573 4.14664 17.0179 3.375 16.2893V17.7051C3.375 19.4044 4.85179 20.6671 6.58802 21.4563C8.40042 22.2801 10.845 22.7676 13.5 22.7676C13.5155 22.7676 13.5309 22.7676 13.5463 22.7675C13.5157 22.4905 13.5 22.209 13.5 21.9238C13.5 21.0348 13.6528 20.1814 13.9335 19.3885Z" fill="white"/>
<path d="M13.9307 24.4511C13.7875 24.4538 13.644 24.4551 13.5 24.4551C10.6608 24.4551 7.96779 23.9371 5.88973 22.9926C5.06964 22.6198 4.14664 22.0804 3.375 21.3518V22.7676C3.375 24.4669 4.85179 25.7296 6.58802 26.5188C8.40042 27.3426 10.845 27.8301 13.5 27.8301C14.4049 27.8301 15.2853 27.7735 16.1246 27.6662C15.138 26.8117 14.3739 25.7071 13.9307 24.4511Z" fill="white"/>
</svg>
